<?xml version="1.0" encoding="UTF-8"?>
<svg id="Layer_2" data-name="Layer 2" xmlns="http://www.w3.org/2000/svg" viewBox="0 0 391.43 82.87">
  <defs>
    <style>
      .cls-1 {
        fill: none;
      }

      .cls-1, .cls-2, .cls-3 {
        stroke-width: 0px;
      }

      .cls-2, .cls-4 {
        fill: #fff;
      }

      .cls-4 {
        stroke: #6e66db;
        stroke-miterlimit: 10;
        stroke-width: 2px;
      }

      .cls-3 {
        fill: #6e66db;
      }
    </style>
  </defs>
  <g id="Layer_1-2" data-name="Layer 1">
    <path class="cls-2" d="M124.27,56.91s-.25.51-.79,1.39c-.54.88-1.33,2.13-2.33,3.67-2.02,3.07-4.76,7.34-8.21,11.8-.86,1.13-2.03,2.01-3.17,2.69-1.14.69-2.28,1.28-3.39,1.79-2.21,1.03-4.25,1.83-5.98,2.46-1.73.63-3.14,1.1-4.13,1.39-.98.3-1.54.44-1.55.4-.01-.03.52-.24,1.48-.6.96-.36,2.35-.87,4.06-1.55,1.7-.68,3.73-1.5,5.91-2.55,1.09-.52,2.21-1.11,3.33-1.79,1.13-.69,2.18-1.48,3.03-2.58,3.42-4.41,6.21-8.66,8.31-11.67,1-1.45,1.83-2.66,2.47-3.58.59-.84.93-1.3.96-1.28Z"/>
    <path class="cls-2" d="M92.31,80.29c-.02.14,2.98.75,6.71,1.36,3.73.61,6.77.99,6.79.85.02-.14-2.98-.75-6.71-1.36-3.73-.61-6.77-.99-6.79-.85Z"/>
    <g>
      <path class="cls-3" d="M84.75,60.97s-6.15-13.21-19.43-9.58c.6-.59,1.18-1.39,1.65-2.5,1.5-3.61-1.05-6.07-1.05-6.07,0,0,2.4-.85,3.76-4.3,1.35-3.46-2.4-6.16-2.4-6.16,3.91-.15,4.02-4.66,4.02-4.66.86-6.31-13.94-9.82-13.94-9.82,0,0-.12-.02-.32-.05-1.67-3.35-1.14-7.4-2.29-11-.84-2.63-2.76-5.15-5.71-6.34-.94-.38-2.01-.62-3.03-.42-1.13.22-2.05.97-2.51,1.86-.72,1.39-.41,3,.24,4.42.65,1.41,1.62,2.71,2.24,4.13.89,2.03,1.03,4.27.45,6.37-1.56.01-2.95.15-3.87.48-3.68,1.35-4.13,11.87-4.13,11.87,0,0-1.65,1.5-2.54,4.96s.73,9.92.73,9.92c-1.05,2.4-.9,8.27,0,11.12.11.35.38.65.76.91-.43.16-.85.37-1.13.65-.76.76-1.34,1.2-1.67,1.92.13.45.22,1.04-.09,1.42-.86,1.04-4.7.31-6.42-1.4-2.15-2.14-10.93-10.48-13.38-12.71-3.4-3.09-6.92-.59-6.92-.59,0,0-3.27-4.83-7.77-1.28l8.5,10.42s9.81,13.54,10.95,14.6c1.13,1.07,23.24,10.09,25.73,9.5,2.49-.59,20.75-3.92,22.56-2.85,1.81,1.07,15.48,6.46,15.48,6.46l7.85-21.54-6.33.24Z"/>
      <path class="cls-2" d="M51.4,41.37c-.02.14,3.11.63,6.99,1.09,3.88.46,7.03.72,7.05.58.02-.14-3.11-.63-6.99-1.09-3.88-.46-7.03-.72-7.05-.58Z"/>
      <path class="cls-2" d="M52.05,30.82c-.02.14,3.11.63,6.99,1.09,3.88.46,7.03.72,7.05.58.02-.14-3.11-.63-6.99-1.09-3.88-.46-7.03-.72-7.05-.58Z"/>
      <path class="cls-2" d="M67.44,46.76c-.1,0-.03.91-.56,2.27-.29.66-.77,1.41-1.5,2.07-.73.65-1.72,1.24-2.83,1.57h.06c-1.13,0-2.35,0-3.61.02-3.32,0-6.31-.17-8.47-.38-2.16-.19-3.5-.38-3.51-.3,0,.04.32.12.92.25.6.12,1.47.27,2.55.42,2.16.3,5.18.53,8.51.53,1.27,0,2.5-.02,3.62-.05h.03s.02,0,.02,0c1.23-.38,2.22-1.02,3-1.74.76-.73,1.24-1.55,1.5-2.27.24-.73.32-1.34.32-1.75,0-.41-.02-.63-.05-.63Z"/>
      <g>
        <path class="cls-2" d="M60.38,71.02c-5.43-1.22-10.78-2.85-15.97-4.88-2.59-1.02-5.15-2.12-7.67-3.32-.62-.31-1.26-.68-1.7-1.26-1.4-1.87.1-4.44,1.89-5.42,5.31-2.97,10.94.91,16.07,2.29,2.81,1.03,5.37-.66,7.81-1.86,0,0,7.51-3.66,7.51-3.66l-7.45,3.77c-1.88.84-3.69,2.21-5.83,2.22-6.01-.47-11.97-5.93-17.98-2.56-1.7.92-3.13,3.3-1.84,5.07.41.53,1.01.9,1.62,1.21,2.5,1.21,5.05,2.33,7.64,3.35,5.18,2.04,10.49,3.72,15.91,5.04h0Z"/>
        <path class="cls-2" d="M68.32,52.91c-3.16,1.38-6.3,3.01-9.42,4.49-4.54,3.05-9.38-.74-13.89-1.88-2.64-.74-5.64-.89-8.07.53-2.49,1.3-3.74,5.04-.75,6.55,7.46,3.72,15.46,6.34,23.58,8.2,0,0,.51.09.51.09,0,0,.06,0,.06,0,0,0,.02,0,.02,0-.02.06.07-.13-.1.14.09.15.04.05.05.08,0,0-.02,0-.02,0-2-.55-5.29-1.56-7.31-2.18-5.34-1.58-10.51-3.73-15.55-6.09-1.24-.54-2.74-1.44-2.62-2.99.63-4.73,6.77-5.07,10.4-3.84,3.33.94,6.43,2.85,9.94,3.02,2.11-.07,3.9-1.41,5.77-2.25,2.47-1.28,4.99-2.48,7.41-3.85h0ZM68.32,52.91c-2.41,1.38-4.93,2.59-7.39,3.88-1.87.85-3.67,2.2-5.79,2.28-3.52-.15-6.64-2.06-9.97-2.98-3.56-1.19-9.62-.88-10.23,3.75-.09,1.51,1.34,2.32,2.55,2.85,5.04,2.35,10.21,4.46,15.55,6.03,2.04.62,5.31,1.6,7.33,2.15,0,0,.04.01.04.01.02.04,0-.06.1.11-.18.28-.12.09-.16.15,0,0-.04,0-.04,0h-.07s-.52-.1-.52-.1c-8.15-1.9-16.13-4.54-23.61-8.31-3.07-1.56-1.83-5.45.77-6.79,2.47-1.43,5.5-1.26,8.16-.51,4.51,1.15,9.3,4.96,13.84,1.93,3.13-1.47,6.27-3.09,9.44-4.45h0Z"/>
      </g>
      <path class="cls-2" d="M45.57,16.85c0,.16,2.94.02,6.51.41,3.58.36,6.41,1.1,6.46.95.02-.06-.67-.33-1.82-.64-1.15-.31-2.77-.64-4.58-.83-1.81-.19-3.46-.2-4.65-.14-1.19.06-1.92.18-1.91.25Z"/>
      <path class="cls-2" d="M29.14,73.48s.41.24,1.19.59c.78.34,1.91.81,3.33,1.34,1.42.54,3.11,1.15,5.01,1.77.95.31,1.95.63,3,.94,1.06.29,2.11.63,3.32.78,1.23-.04,2.28-.29,3.37-.44,1.07-.18,2.1-.36,3.08-.52,1.94-.35,3.69-.67,5.21-.95,1.48-.28,2.68-.52,3.5-.7.82-.18,1.28-.29,1.27-.33,0-.04-.47.01-1.3.13-.93.14-2.11.32-3.53.53-1.52.24-3.28.53-5.22.84-.99.16-2.02.32-3.08.49-1.06.14-2.21.39-3.27.42-1.07-.13-2.18-.47-3.21-.75-1.04-.3-2.04-.61-2.99-.9-1.9-.6-3.61-1.17-5.03-1.66-1.35-.48-2.49-.87-3.38-1.19-.8-.28-1.24-.43-1.25-.4Z"/>
    </g>
    <path class="cls-2" d="M101.81,79.71c-.15.03-.14.67-.34,1.4-.19.74-.51,1.3-.4,1.39.1.1.67-.39.9-1.26.23-.86-.03-1.57-.16-1.54Z"/>
    <path class="cls-3" d="M142.84,68.21h-27.19l-4.94,14.31h-16.89L120.9,10.85h17.51l27.08,71.67h-17.71l-4.94-14.31ZM137.79,53.89l-8.55-24.82-8.65,24.82h17.2Z"/>
    <path class="cls-3" d="M183.82,56.26l-25.95-45.41h18.84l15.86,29.76,15.86-29.76h18.12l-25.95,45.41v26.26h-16.78v-26.26Z"/>
    <path class="cls-3" d="M267.85,68.21h-27.18l-4.94,14.31h-16.89l27.08-71.67h17.51l27.08,71.67h-17.71l-4.94-14.31ZM262.81,53.89l-8.55-24.82-8.65,24.82h17.2Z"/>
    <path class="cls-3" d="M299.16,10.85h27.91c7.31,0,13.8,1.44,19.26,4.43,5.46,2.99,9.78,7.1,12.77,12.46s4.43,11.64,4.43,18.95-1.44,13.59-4.43,18.95c-2.99,5.35-7.31,9.47-12.77,12.46s-11.95,4.43-19.26,4.43h-27.91V10.85ZM326.04,68c6.28,0,11.22-1.85,14.93-5.56,3.71-3.71,5.56-8.96,5.56-15.76s-1.85-12.05-5.56-15.75c-3.71-3.71-8.65-5.56-14.93-5.56h-10.09v42.63h10.09Z"/>
    <path class="cls-3" d="M374.65,82.52V10.85h16.79v71.67h-16.79Z"/>
    <line class="cls-4" x1="110.9" y1="10.85" x2="83.82" y2="82.52"/>
    <path class="cls-1" d="M68.29,52.84c-2.83,1.6-5.68,3.2-8.66,4.5-1.94.84-4.06,1.57-6.15,1.2-1.27-.22-2.43-.84-3.6-1.37-1.75-.79-3.58-1.4-5.46-1.83-1.77-.41-3.62-.64-5.4-.27s-3.49,1.44-4.27,3.08-.42,3.86,1.07,4.9c.59.42,1.31.62,2.01.8,2.64.66,5.37.95,7.98,1.73,1.58.47,3.1,1.12,4.64,1.69,3.31,1.22,6.73,2.1,10.15,2.98"/>
  </g>
</svg>